<svg width="31" height="31" viewBox="0 0 31 31" fill="none" xmlns="http://www.w3.org/2000/svg">
<path fill-rule="evenodd" clip-rule="evenodd" d="M0 15.5C0 6.93977 6.93977 0 15.5 0C24.0602 0 31 6.93977 31 15.5C31 24.0602 24.0602 31 15.5 31C6.93977 31 0 24.0602 0 15.5ZM5.50673 23.3092C3.82286 21.1561 2.81818 18.445 2.81818 15.5C2.81844 13.4864 3.29818 11.5017 4.21773 9.71032C5.13728 7.91891 6.47019 6.37221 8.10617 5.19821C9.74216 4.02421 11.6342 3.25665 13.6257 2.95905C15.6172 2.66145 17.651 2.84236 19.5587 3.48681C21.4664 4.13126 23.1933 5.22072 24.5964 6.66505C25.9994 8.10939 27.0384 9.86707 27.6273 11.7927C28.2162 13.7183 28.3382 15.7564 27.983 17.7385C27.6278 19.7205 26.8058 21.5895 25.5849 23.1908C24.3998 21.6717 22.8836 20.4431 21.1518 19.5987C19.42 18.7543 17.5183 18.3164 15.5916 18.3182C13.6396 18.3165 11.7137 18.7661 9.96429 19.6319C8.21486 20.4977 6.68928 21.7562 5.50673 23.3092ZM7.50764 25.3467C9.76538 27.1847 12.5887 28.1862 15.5 28.1818C18.4627 28.186 21.3326 27.1485 23.6079 25.2509C22.6953 23.9769 21.492 22.939 20.0978 22.2234C18.7036 21.5078 17.1587 21.1351 15.5916 21.1364C14.0047 21.1352 12.4409 21.5175 11.0335 22.2505C9.62598 22.9836 8.4164 24.0458 7.50764 25.3467ZM19.4855 15.2582C20.5425 14.2012 21.1364 12.7676 21.1364 11.2727C21.1364 9.77787 20.5425 8.34424 19.4855 7.28722C18.4285 6.23019 16.9949 5.63636 15.5 5.63636C14.0051 5.63636 12.5715 6.23019 11.5145 7.28722C10.4575 8.34424 9.86363 9.77787 9.86363 11.2727C9.86363 12.7676 10.4575 14.2012 11.5145 15.2582C12.5715 16.3153 14.0051 16.9091 15.5 16.9091C16.9949 16.9091 18.4285 16.3153 19.4855 15.2582ZM17.4928 13.2655C18.0213 12.737 18.3182 12.0202 18.3182 11.2727C18.3182 10.5253 18.0213 9.80848 17.4928 9.27997C16.9642 8.75146 16.2474 8.45455 15.5 8.45455C14.7526 8.45455 14.0358 8.75146 13.5072 9.27997C12.9787 9.80848 12.6818 10.5253 12.6818 11.2727C12.6818 12.0202 12.9787 12.737 13.5072 13.2655C14.0358 13.794 14.7526 14.0909 15.5 14.0909C16.2474 14.0909 16.9642 13.794 17.4928 13.2655Z" fill="#FFCEA2"/>
</svg>
